<mxfile host="app.diagrams.net" modified="2023-06-05T18:25:48.599Z" agent="Mozilla/5.0 (Windows NT 10.0; Win64; x64) AppleWebKit/537.36 (KHTML, like Gecko) Chrome/113.0.0.0 Safari/537.36" etag="u9v96h1Xfgg6KzP2AZa5" version="21.3.7" type="device">
  <diagram id="C5RBs43oDa-KdzZeNtuy" name="Page-1">
    <mxGraphModel dx="1050" dy="573" grid="1" gridSize="10" guides="1" tooltips="1" connect="1" arrows="1" fold="1" page="1" pageScale="1" pageWidth="827" pageHeight="1169" math="0" shadow="0">
      <root>
        <mxCell id="WIyWlLk6GJQsqaUBKTNV-0" />
        <mxCell id="WIyWlLk6GJQsqaUBKTNV-1" parent="WIyWlLk6GJQsqaUBKTNV-0" />
        <mxCell id="WIyWlLk6GJQsqaUBKTNV-3" value="Lâmpada pisca indicando inicialização" style="rounded=1;whiteSpace=wrap;html=1;fontSize=12;glass=0;strokeWidth=1;shadow=0;" parent="WIyWlLk6GJQsqaUBKTNV-1" vertex="1">
          <mxGeometry x="359" y="130" width="120" height="60" as="geometry" />
        </mxCell>
        <mxCell id="TKUQlw1HjThalMCPjlDY-1" value="Início" style="strokeWidth=1;html=1;shape=mxgraph.flowchart.start_1;whiteSpace=wrap;" parent="WIyWlLk6GJQsqaUBKTNV-1" vertex="1">
          <mxGeometry x="369" y="40" width="100" height="40" as="geometry" />
        </mxCell>
        <mxCell id="TKUQlw1HjThalMCPjlDY-3" value="" style="rounded=0;html=1;jettySize=auto;orthogonalLoop=1;fontSize=11;endArrow=block;endFill=0;endSize=8;strokeWidth=1;shadow=0;labelBackgroundColor=none;edgeStyle=orthogonalEdgeStyle;exitX=0.5;exitY=1;exitDx=0;exitDy=0;exitPerimeter=0;entryX=0.5;entryY=0;entryDx=0;entryDy=0;" parent="WIyWlLk6GJQsqaUBKTNV-1" source="TKUQlw1HjThalMCPjlDY-1" target="WIyWlLk6GJQsqaUBKTNV-3" edge="1">
          <mxGeometry relative="1" as="geometry">
            <mxPoint x="429" y="170" as="sourcePoint" />
            <mxPoint x="399" y="100" as="targetPoint" />
          </mxGeometry>
        </mxCell>
        <mxCell id="TKUQlw1HjThalMCPjlDY-4" value="" style="rounded=0;html=1;jettySize=auto;orthogonalLoop=1;fontSize=11;endArrow=block;endFill=0;endSize=8;strokeWidth=1;shadow=0;labelBackgroundColor=none;edgeStyle=orthogonalEdgeStyle;exitX=0.5;exitY=1;exitDx=0;exitDy=0;entryX=0.5;entryY=0;entryDx=0;entryDy=0;" parent="WIyWlLk6GJQsqaUBKTNV-1" source="WIyWlLk6GJQsqaUBKTNV-3" target="TKUQlw1HjThalMCPjlDY-5" edge="1">
          <mxGeometry relative="1" as="geometry">
            <mxPoint x="418.58000000000004" y="200" as="sourcePoint" />
            <mxPoint x="419" y="220" as="targetPoint" />
          </mxGeometry>
        </mxCell>
        <mxCell id="TKUQlw1HjThalMCPjlDY-5" value="Aguarda instrução do usuário remoto" style="rounded=1;whiteSpace=wrap;html=1;fontSize=12;glass=0;strokeWidth=1;shadow=0;" parent="WIyWlLk6GJQsqaUBKTNV-1" vertex="1">
          <mxGeometry x="359" y="240" width="120" height="60" as="geometry" />
        </mxCell>
        <mxCell id="TKUQlw1HjThalMCPjlDY-7" value="Recebeu instrução?" style="rhombus;whiteSpace=wrap;html=1;shadow=0;fontFamily=Helvetica;fontSize=12;align=center;strokeWidth=1;spacing=6;spacingTop=-4;" parent="WIyWlLk6GJQsqaUBKTNV-1" vertex="1">
          <mxGeometry x="369" y="350" width="100" height="80" as="geometry" />
        </mxCell>
        <mxCell id="TKUQlw1HjThalMCPjlDY-8" value="" style="rounded=0;html=1;jettySize=auto;orthogonalLoop=1;fontSize=11;endArrow=block;endFill=0;endSize=8;strokeWidth=1;shadow=0;labelBackgroundColor=none;edgeStyle=orthogonalEdgeStyle;exitX=0.5;exitY=1;exitDx=0;exitDy=0;entryX=0.5;entryY=0;entryDx=0;entryDy=0;" parent="WIyWlLk6GJQsqaUBKTNV-1" edge="1">
          <mxGeometry relative="1" as="geometry">
            <mxPoint x="418.58000000000004" y="300" as="sourcePoint" />
            <mxPoint x="418.58000000000004" y="350" as="targetPoint" />
          </mxGeometry>
        </mxCell>
        <mxCell id="TKUQlw1HjThalMCPjlDY-12" value="Sim" style="text;html=1;strokeColor=none;fillColor=none;align=center;verticalAlign=middle;whiteSpace=wrap;rounded=0;" parent="WIyWlLk6GJQsqaUBKTNV-1" vertex="1">
          <mxGeometry x="469" y="370" width="40" height="20" as="geometry" />
        </mxCell>
        <mxCell id="TKUQlw1HjThalMCPjlDY-13" value="" style="rounded=0;html=1;jettySize=auto;orthogonalLoop=1;fontSize=11;endArrow=block;endFill=0;endSize=8;strokeWidth=1;shadow=0;labelBackgroundColor=none;edgeStyle=orthogonalEdgeStyle;exitX=0.5;exitY=1;exitDx=0;exitDy=0;entryX=0.5;entryY=0;entryDx=0;entryDy=0;" parent="WIyWlLk6GJQsqaUBKTNV-1" source="TKUQlw1HjThalMCPjlDY-7" target="TKUQlw1HjThalMCPjlDY-14" edge="1">
          <mxGeometry relative="1" as="geometry">
            <mxPoint x="428.58000000000004" y="310" as="sourcePoint" />
            <mxPoint x="419" y="480" as="targetPoint" />
          </mxGeometry>
        </mxCell>
        <mxCell id="TKUQlw1HjThalMCPjlDY-14" value="Monitora sensor de presença" style="rounded=1;whiteSpace=wrap;html=1;fontSize=12;glass=0;strokeWidth=1;shadow=0;" parent="WIyWlLk6GJQsqaUBKTNV-1" vertex="1">
          <mxGeometry x="359" y="480" width="120" height="60" as="geometry" />
        </mxCell>
        <mxCell id="TKUQlw1HjThalMCPjlDY-15" value="Não" style="text;html=1;strokeColor=none;fillColor=none;align=center;verticalAlign=middle;whiteSpace=wrap;rounded=0;" parent="WIyWlLk6GJQsqaUBKTNV-1" vertex="1">
          <mxGeometry x="419" y="430" width="40" height="20" as="geometry" />
        </mxCell>
        <mxCell id="TKUQlw1HjThalMCPjlDY-16" value="Sensor acionado?" style="rhombus;whiteSpace=wrap;html=1;shadow=0;fontFamily=Helvetica;fontSize=12;align=center;strokeWidth=1;spacing=6;spacingTop=-4;" parent="WIyWlLk6GJQsqaUBKTNV-1" vertex="1">
          <mxGeometry x="369" y="740" width="100" height="80" as="geometry" />
        </mxCell>
        <mxCell id="TKUQlw1HjThalMCPjlDY-17" value="" style="rounded=0;html=1;jettySize=auto;orthogonalLoop=1;fontSize=11;endArrow=block;endFill=0;endSize=8;strokeWidth=1;shadow=0;labelBackgroundColor=none;edgeStyle=orthogonalEdgeStyle;exitX=0.5;exitY=1;exitDx=0;exitDy=0;entryX=0.5;entryY=0;entryDx=0;entryDy=0;" parent="WIyWlLk6GJQsqaUBKTNV-1" source="TKUQlw1HjThalMCPjlDY-14" target="TKUQlw1HjThalMCPjlDY-16" edge="1">
          <mxGeometry relative="1" as="geometry">
            <mxPoint x="429" y="440" as="sourcePoint" />
            <mxPoint x="429" y="490" as="targetPoint" />
          </mxGeometry>
        </mxCell>
        <mxCell id="TKUQlw1HjThalMCPjlDY-20" value="Sim" style="text;html=1;strokeColor=none;fillColor=none;align=center;verticalAlign=middle;whiteSpace=wrap;rounded=0;" parent="WIyWlLk6GJQsqaUBKTNV-1" vertex="1">
          <mxGeometry x="329" y="760" width="40" height="20" as="geometry" />
        </mxCell>
        <mxCell id="TKUQlw1HjThalMCPjlDY-22" value="Acende lâmpada" style="rounded=1;whiteSpace=wrap;html=1;fontSize=12;glass=0;strokeWidth=1;shadow=0;" parent="WIyWlLk6GJQsqaUBKTNV-1" vertex="1">
          <mxGeometry x="219" y="980" width="120" height="60" as="geometry" />
        </mxCell>
        <mxCell id="TKUQlw1HjThalMCPjlDY-23" value="Não" style="text;html=1;strokeColor=none;fillColor=none;align=center;verticalAlign=middle;whiteSpace=wrap;rounded=0;" parent="WIyWlLk6GJQsqaUBKTNV-1" vertex="1">
          <mxGeometry x="419" y="820" width="40" height="20" as="geometry" />
        </mxCell>
        <mxCell id="TKUQlw1HjThalMCPjlDY-24" value="Desliga lâmpada" style="rounded=1;whiteSpace=wrap;html=1;fontSize=12;glass=0;strokeWidth=1;shadow=0;" parent="WIyWlLk6GJQsqaUBKTNV-1" vertex="1">
          <mxGeometry x="359" y="870" width="120" height="60" as="geometry" />
        </mxCell>
        <mxCell id="TKUQlw1HjThalMCPjlDY-31" value="" style="rounded=0;html=1;jettySize=auto;orthogonalLoop=1;fontSize=11;endArrow=block;endFill=0;endSize=8;strokeWidth=1;shadow=0;labelBackgroundColor=none;edgeStyle=orthogonalEdgeStyle;exitX=0.5;exitY=1;exitDx=0;exitDy=0;entryX=0.5;entryY=0;entryDx=0;entryDy=0;" parent="WIyWlLk6GJQsqaUBKTNV-1" edge="1">
          <mxGeometry relative="1" as="geometry">
            <mxPoint x="419" y="820" as="sourcePoint" />
            <mxPoint x="419" y="870" as="targetPoint" />
          </mxGeometry>
        </mxCell>
        <mxCell id="TKUQlw1HjThalMCPjlDY-32" value="" style="rounded=0;html=1;jettySize=auto;orthogonalLoop=1;fontSize=11;endArrow=block;endFill=0;endSize=8;strokeWidth=1;shadow=0;labelBackgroundColor=none;edgeStyle=orthogonalEdgeStyle;exitX=1;exitY=1;exitDx=0;exitDy=0;entryX=0.5;entryY=0;entryDx=0;entryDy=0;" parent="WIyWlLk6GJQsqaUBKTNV-1" source="TKUQlw1HjThalMCPjlDY-20" target="TKUQlw1HjThalMCPjlDY-22" edge="1">
          <mxGeometry relative="1" as="geometry">
            <mxPoint x="299" y="800" as="sourcePoint" />
            <mxPoint x="299" y="850" as="targetPoint" />
            <Array as="points">
              <mxPoint x="279" y="780" />
            </Array>
          </mxGeometry>
        </mxCell>
        <mxCell id="TKUQlw1HjThalMCPjlDY-34" value="" style="rounded=0;html=1;jettySize=auto;orthogonalLoop=1;fontSize=11;endArrow=none;endFill=0;endSize=8;strokeWidth=1;shadow=0;labelBackgroundColor=none;edgeStyle=orthogonalEdgeStyle;exitX=0.5;exitY=1;exitDx=0;exitDy=0;" parent="WIyWlLk6GJQsqaUBKTNV-1" source="TKUQlw1HjThalMCPjlDY-24" edge="1">
          <mxGeometry relative="1" as="geometry">
            <mxPoint x="399" y="960" as="sourcePoint" />
            <mxPoint x="349" y="1070" as="targetPoint" />
            <Array as="points">
              <mxPoint x="419" y="1070" />
              <mxPoint x="349" y="1070" />
            </Array>
          </mxGeometry>
        </mxCell>
        <mxCell id="TKUQlw1HjThalMCPjlDY-35" value="" style="rounded=0;html=1;jettySize=auto;orthogonalLoop=1;fontSize=11;endArrow=block;endFill=0;endSize=8;strokeWidth=1;shadow=0;labelBackgroundColor=none;edgeStyle=orthogonalEdgeStyle;exitX=0.5;exitY=1;exitDx=0;exitDy=0;" parent="WIyWlLk6GJQsqaUBKTNV-1" source="TKUQlw1HjThalMCPjlDY-22" edge="1">
          <mxGeometry relative="1" as="geometry">
            <mxPoint x="429" y="790" as="sourcePoint" />
            <mxPoint x="419" y="220" as="targetPoint" />
            <Array as="points">
              <mxPoint x="279" y="1070" />
              <mxPoint x="349" y="1070" />
              <mxPoint x="349" y="1110" />
              <mxPoint x="179" y="1110" />
              <mxPoint x="179" y="220" />
            </Array>
          </mxGeometry>
        </mxCell>
        <mxCell id="TKUQlw1HjThalMCPjlDY-36" value="" style="rounded=0;html=1;jettySize=auto;orthogonalLoop=1;fontSize=11;endArrow=block;endFill=0;endSize=8;strokeWidth=1;shadow=0;labelBackgroundColor=none;edgeStyle=orthogonalEdgeStyle;exitX=0;exitY=1;exitDx=0;exitDy=0;entryX=0.5;entryY=0;entryDx=0;entryDy=0;" parent="WIyWlLk6GJQsqaUBKTNV-1" source="TKUQlw1HjThalMCPjlDY-12" target="TKUQlw1HjThalMCPjlDY-37" edge="1">
          <mxGeometry relative="1" as="geometry">
            <mxPoint x="519" y="415" as="sourcePoint" />
            <mxPoint x="559" y="590" as="targetPoint" />
            <Array as="points">
              <mxPoint x="559" y="390" />
            </Array>
          </mxGeometry>
        </mxCell>
        <mxCell id="TKUQlw1HjThalMCPjlDY-37" value="Instrução é de acender?" style="rhombus;whiteSpace=wrap;html=1;shadow=0;fontFamily=Helvetica;fontSize=12;align=center;strokeWidth=1;spacing=6;spacingTop=-4;" parent="WIyWlLk6GJQsqaUBKTNV-1" vertex="1">
          <mxGeometry x="509" y="740" width="100" height="80" as="geometry" />
        </mxCell>
        <mxCell id="TKUQlw1HjThalMCPjlDY-38" value="Não" style="text;html=1;strokeColor=none;fillColor=none;align=center;verticalAlign=middle;whiteSpace=wrap;rounded=0;" parent="WIyWlLk6GJQsqaUBKTNV-1" vertex="1">
          <mxGeometry x="609" y="760" width="40" height="20" as="geometry" />
        </mxCell>
        <mxCell id="TKUQlw1HjThalMCPjlDY-39" value="Sim" style="text;html=1;strokeColor=none;fillColor=none;align=center;verticalAlign=middle;whiteSpace=wrap;rounded=0;" parent="WIyWlLk6GJQsqaUBKTNV-1" vertex="1">
          <mxGeometry x="559" y="820" width="40" height="20" as="geometry" />
        </mxCell>
        <mxCell id="TKUQlw1HjThalMCPjlDY-40" value="" style="rounded=0;html=1;jettySize=auto;orthogonalLoop=1;fontSize=11;endArrow=block;endFill=0;endSize=8;strokeWidth=1;shadow=0;labelBackgroundColor=none;edgeStyle=orthogonalEdgeStyle;exitX=0.5;exitY=1;exitDx=0;exitDy=0;" parent="WIyWlLk6GJQsqaUBKTNV-1" source="TKUQlw1HjThalMCPjlDY-37" edge="1">
          <mxGeometry relative="1" as="geometry">
            <mxPoint x="558.17" y="850" as="sourcePoint" />
            <mxPoint x="279" y="960" as="targetPoint" />
            <Array as="points">
              <mxPoint x="559" y="960" />
            </Array>
          </mxGeometry>
        </mxCell>
        <mxCell id="TKUQlw1HjThalMCPjlDY-42" value="" style="rounded=0;html=1;jettySize=auto;orthogonalLoop=1;fontSize=11;endArrow=block;endFill=0;endSize=8;strokeWidth=1;shadow=0;labelBackgroundColor=none;edgeStyle=orthogonalEdgeStyle;exitX=1;exitY=0.5;exitDx=0;exitDy=0;" parent="WIyWlLk6GJQsqaUBKTNV-1" source="TKUQlw1HjThalMCPjlDY-37" edge="1">
          <mxGeometry relative="1" as="geometry">
            <mxPoint x="639" y="830" as="sourcePoint" />
            <mxPoint x="419" y="850" as="targetPoint" />
            <Array as="points">
              <mxPoint x="640" y="780" />
              <mxPoint x="640" y="850" />
            </Array>
          </mxGeometry>
        </mxCell>
      </root>
    </mxGraphModel>
  </diagram>
</mxfile>
